<mxfile host="app.diagrams.net" agent="Mozilla/5.0 (Windows NT 10.0; Win64; x64) AppleWebKit/537.36 (KHTML, like Gecko) Chrome/128.0.0.0 Safari/537.36 OPR/114.0.0.0" version="24.9.0">
  <diagram name="Page-1" id="58cdce13-f638-feb5-8d6f-7d28b1aa9fa0">
    <mxGraphModel dx="1990" dy="254" grid="1" gridSize="10" guides="1" tooltips="1" connect="1" arrows="1" fold="1" page="1" pageScale="1" pageWidth="1100" pageHeight="850" background="none" math="0" shadow="0">
      <root>
        <mxCell id="0" />
        <mxCell id="1" parent="0" />
        <mxCell id="CTZWOQ9P4lEHfxjSNw43-21" value="Hotel booking service" style="shape=umlFrame;whiteSpace=wrap;html=1;rounded=1;shadow=0;comic=0;labelBackgroundColor=none;strokeWidth=1;fontFamily=Verdana;fontSize=12;align=center;width=160;height=38;" vertex="1" parent="1">
          <mxGeometry x="50" y="880" width="1010" height="800" as="geometry" />
        </mxCell>
        <mxCell id="CTZWOQ9P4lEHfxjSNw43-32" value="Idle" style="rounded=1;whiteSpace=wrap;html=1;arcSize=24;shadow=0;comic=0;labelBackgroundColor=none;fontFamily=Verdana;fontSize=12;align=center;" vertex="1" parent="1">
          <mxGeometry x="430" y="992" width="120" height="40" as="geometry" />
        </mxCell>
        <mxCell id="CTZWOQ9P4lEHfxjSNw43-34" value="RoomSelected " style="rounded=1;whiteSpace=wrap;html=1;arcSize=24;shadow=0;comic=0;labelBackgroundColor=none;fontFamily=Verdana;fontSize=12;align=center;" vertex="1" parent="1">
          <mxGeometry x="275" y="1110" width="120" height="40" as="geometry" />
        </mxCell>
        <mxCell id="CTZWOQ9P4lEHfxjSNw43-35" value="BookingConfirmed " style="rounded=1;whiteSpace=wrap;html=1;arcSize=24;shadow=0;comic=0;labelBackgroundColor=none;fontFamily=Verdana;fontSize=12;align=center;" vertex="1" parent="1">
          <mxGeometry x="275" y="1220" width="120" height="40" as="geometry" />
        </mxCell>
        <mxCell id="CTZWOQ9P4lEHfxjSNw43-36" value="ChangeRoom " style="rounded=1;whiteSpace=wrap;html=1;arcSize=24;shadow=0;comic=0;labelBackgroundColor=none;fontFamily=Verdana;fontSize=12;align=center;" vertex="1" parent="1">
          <mxGeometry x="80" y="1110" width="120" height="40" as="geometry" />
        </mxCell>
        <mxCell id="CTZWOQ9P4lEHfxjSNw43-37" value="BookingCancelled " style="rounded=1;whiteSpace=wrap;html=1;arcSize=24;shadow=0;comic=0;labelBackgroundColor=none;fontFamily=Verdana;fontSize=12;align=center;" vertex="1" parent="1">
          <mxGeometry x="870" y="992" width="120" height="40" as="geometry" />
        </mxCell>
        <mxCell id="CTZWOQ9P4lEHfxjSNw43-58" value="" style="group" vertex="1" connectable="0" parent="1">
          <mxGeometry x="610" y="1190" width="320" height="320" as="geometry" />
        </mxCell>
        <mxCell id="CTZWOQ9P4lEHfxjSNw43-38" value="Paid (Superstate)" style="rounded=1;whiteSpace=wrap;html=1;arcSize=24;shadow=0;comic=0;labelBackgroundColor=none;fontFamily=Verdana;fontSize=12;align=center;verticalAlign=top;" vertex="1" parent="CTZWOQ9P4lEHfxjSNw43-58">
          <mxGeometry width="309.6774193548387" height="320" as="geometry" />
        </mxCell>
        <mxCell id="CTZWOQ9P4lEHfxjSNw43-45" value="Confirm&lt;div&gt;(Substate)&lt;/div&gt;" style="rounded=1;whiteSpace=wrap;html=1;arcSize=24;shadow=0;comic=0;labelBackgroundColor=none;fontFamily=Verdana;fontSize=12;align=center;" vertex="1" parent="CTZWOQ9P4lEHfxjSNw43-58">
          <mxGeometry x="92.90322580645162" y="45.333333333333336" width="123.87096774193549" height="64" as="geometry" />
        </mxCell>
        <mxCell id="CTZWOQ9P4lEHfxjSNw43-46" value="Pay&lt;div&gt;(Substate)&lt;/div&gt;" style="rounded=1;whiteSpace=wrap;html=1;arcSize=24;shadow=0;comic=0;labelBackgroundColor=none;fontFamily=Verdana;fontSize=12;align=center;" vertex="1" parent="CTZWOQ9P4lEHfxjSNw43-58">
          <mxGeometry x="92.90322580645162" y="245.33333333333334" width="123.87096774193549" height="64" as="geometry" />
        </mxCell>
        <mxCell id="CTZWOQ9P4lEHfxjSNw43-47" style="edgeStyle=orthogonalEdgeStyle;html=1;labelBackgroundColor=none;endArrow=open;endSize=8;fontFamily=Verdana;fontSize=12;align=left;exitX=0.5;exitY=1;exitDx=0;exitDy=0;" edge="1" parent="CTZWOQ9P4lEHfxjSNw43-58" source="CTZWOQ9P4lEHfxjSNw43-45" target="CTZWOQ9P4lEHfxjSNw43-46">
          <mxGeometry relative="1" as="geometry">
            <mxPoint x="-258.06451612903226" y="149.33333333333357" as="sourcePoint" />
            <mxPoint x="-72.25806451612902" y="149.33333333333357" as="targetPoint" />
            <Array as="points" />
          </mxGeometry>
        </mxCell>
        <mxCell id="CTZWOQ9P4lEHfxjSNw43-52" value="Discount/Veterans()" style="text;html=1;align=left;verticalAlign=middle;resizable=0;points=[];autosize=1;strokeColor=none;fillColor=none;fontSize=11;" vertex="1" parent="CTZWOQ9P4lEHfxjSNw43-58">
          <mxGeometry x="165.16129032258064" y="117.33333333333333" width="120" height="30" as="geometry" />
        </mxCell>
        <mxCell id="CTZWOQ9P4lEHfxjSNw43-53" value="Discount/ElderlyPeople()" style="text;html=1;align=left;verticalAlign=middle;resizable=0;points=[];autosize=1;strokeColor=none;fillColor=none;fontSize=11;" vertex="1" parent="CTZWOQ9P4lEHfxjSNw43-58">
          <mxGeometry x="165.16129032258064" y="149.33333333333334" width="140" height="30" as="geometry" />
        </mxCell>
        <mxCell id="CTZWOQ9P4lEHfxjSNw43-54" value="Discount/DisabledPeople()" style="text;html=1;align=left;verticalAlign=middle;resizable=0;points=[];autosize=1;strokeColor=none;fillColor=none;fontSize=11;" vertex="1" parent="CTZWOQ9P4lEHfxjSNw43-58">
          <mxGeometry x="165.16129032258064" y="181.33333333333334" width="150" height="30" as="geometry" />
        </mxCell>
        <mxCell id="CTZWOQ9P4lEHfxjSNw43-55" value="Discount/SingleMothers()" style="text;html=1;align=left;verticalAlign=middle;resizable=0;points=[];autosize=1;strokeColor=none;fillColor=none;fontSize=11;" vertex="1" parent="CTZWOQ9P4lEHfxjSNw43-58">
          <mxGeometry x="165.16129032258064" y="213.33333333333334" width="150" height="30" as="geometry" />
        </mxCell>
        <mxCell id="CTZWOQ9P4lEHfxjSNw43-56" value="" style="ellipse;html=1;shape=startState;rounded=1;shadow=0;comic=0;labelBackgroundColor=none;fontFamily=Verdana;fontSize=12;align=center;direction=south;fillStyle=auto;fillColor=#000000;" vertex="1" parent="CTZWOQ9P4lEHfxjSNw43-58">
          <mxGeometry x="15.483870967741936" y="61.333333333333336" width="30.967741935483872" height="32" as="geometry" />
        </mxCell>
        <mxCell id="CTZWOQ9P4lEHfxjSNw43-57" style="edgeStyle=orthogonalEdgeStyle;html=1;labelBackgroundColor=none;endArrow=open;endSize=8;fontFamily=Verdana;fontSize=12;align=left;entryX=0;entryY=0.5;entryDx=0;entryDy=0;" edge="1" source="CTZWOQ9P4lEHfxjSNw43-56" parent="CTZWOQ9P4lEHfxjSNw43-58" target="CTZWOQ9P4lEHfxjSNw43-45">
          <mxGeometry relative="1" as="geometry">
            <mxPoint x="87.74193548387096" y="77.33333333333333" as="targetPoint" />
          </mxGeometry>
        </mxCell>
        <mxCell id="CTZWOQ9P4lEHfxjSNw43-67" value="" style="ellipse;html=1;shape=startState;rounded=1;shadow=0;comic=0;labelBackgroundColor=none;fontFamily=Verdana;fontSize=12;align=center;direction=south;fillStyle=auto;fillColor=#000000;" vertex="1" parent="1">
          <mxGeometry x="430" y="922" width="30" height="30" as="geometry" />
        </mxCell>
        <mxCell id="CTZWOQ9P4lEHfxjSNw43-68" style="edgeStyle=orthogonalEdgeStyle;html=1;labelBackgroundColor=none;endArrow=open;endSize=8;fontFamily=Verdana;fontSize=12;align=left;entryX=0.25;entryY=0;entryDx=0;entryDy=0;" edge="1" source="CTZWOQ9P4lEHfxjSNw43-67" parent="1" target="CTZWOQ9P4lEHfxjSNw43-32">
          <mxGeometry relative="1" as="geometry">
            <mxPoint x="330" y="911" as="targetPoint" />
            <Array as="points">
              <mxPoint x="445" y="972" />
              <mxPoint x="460" y="972" />
            </Array>
          </mxGeometry>
        </mxCell>
        <mxCell id="CTZWOQ9P4lEHfxjSNw43-69" value="" style="ellipse;html=1;shape=endState;rounded=1;shadow=0;comic=0;labelBackgroundColor=none;fontFamily=Verdana;fontSize=12;align=center;fillColor=#141414;" vertex="1" parent="1">
          <mxGeometry x="475" y="922" width="30" height="30" as="geometry" />
        </mxCell>
        <mxCell id="CTZWOQ9P4lEHfxjSNw43-70" style="edgeStyle=elbowEdgeStyle;html=1;labelBackgroundColor=none;endArrow=open;endSize=8;fontFamily=Verdana;fontSize=12;align=left;exitX=0.5;exitY=0;exitDx=0;exitDy=0;" edge="1" target="CTZWOQ9P4lEHfxjSNw43-69" parent="1" source="CTZWOQ9P4lEHfxjSNw43-32">
          <mxGeometry relative="1" as="geometry">
            <mxPoint x="240" y="939" as="sourcePoint" />
          </mxGeometry>
        </mxCell>
        <mxCell id="CTZWOQ9P4lEHfxjSNw43-72" value="Cancel(Already Booked Room)" style="text;html=1;align=left;verticalAlign=middle;resizable=0;points=[];autosize=1;strokeColor=none;fillColor=none;" vertex="1" parent="1">
          <mxGeometry x="630" y="1080" width="190" height="30" as="geometry" />
        </mxCell>
        <mxCell id="CTZWOQ9P4lEHfxjSNw43-75" style="edgeStyle=orthogonalEdgeStyle;html=1;labelBackgroundColor=none;endArrow=open;endSize=8;fontFamily=Verdana;fontSize=12;align=left;exitX=1;exitY=0.5;exitDx=0;exitDy=0;entryX=0.5;entryY=1;entryDx=0;entryDy=0;" edge="1" parent="1" source="CTZWOQ9P4lEHfxjSNw43-34" target="CTZWOQ9P4lEHfxjSNw43-37">
          <mxGeometry relative="1" as="geometry">
            <mxPoint x="520" y="1200" as="sourcePoint" />
            <mxPoint x="940" y="1060" as="targetPoint" />
            <Array as="points" />
          </mxGeometry>
        </mxCell>
        <mxCell id="CTZWOQ9P4lEHfxjSNw43-76" value="Cancel(Abandon Booking Process)" style="text;html=1;align=left;verticalAlign=middle;resizable=0;points=[];autosize=1;strokeColor=none;fillColor=none;" vertex="1" parent="1">
          <mxGeometry x="630" y="1135" width="210" height="30" as="geometry" />
        </mxCell>
        <mxCell id="CTZWOQ9P4lEHfxjSNw43-77" style="edgeStyle=orthogonalEdgeStyle;html=1;labelBackgroundColor=none;endArrow=open;endSize=8;fontFamily=Verdana;fontSize=12;align=left;entryX=0.75;entryY=0;entryDx=0;entryDy=0;exitX=0.25;exitY=1;exitDx=0;exitDy=0;" edge="1" parent="1" source="CTZWOQ9P4lEHfxjSNw43-32" target="CTZWOQ9P4lEHfxjSNw43-34">
          <mxGeometry relative="1" as="geometry">
            <mxPoint x="190" y="1080" as="sourcePoint" />
            <mxPoint x="370" y="1080" as="targetPoint" />
            <Array as="points">
              <mxPoint x="460" y="1080" />
              <mxPoint x="365" y="1080" />
            </Array>
          </mxGeometry>
        </mxCell>
        <mxCell id="CTZWOQ9P4lEHfxjSNw43-78" style="edgeStyle=orthogonalEdgeStyle;html=1;labelBackgroundColor=none;endArrow=open;endSize=8;fontFamily=Verdana;fontSize=12;align=left;exitX=0.75;exitY=1;exitDx=0;exitDy=0;entryX=0.25;entryY=1;entryDx=0;entryDy=0;" edge="1" parent="1" source="CTZWOQ9P4lEHfxjSNw43-32" target="CTZWOQ9P4lEHfxjSNw43-37">
          <mxGeometry relative="1" as="geometry">
            <mxPoint x="720" y="1062" as="sourcePoint" />
            <mxPoint x="900" y="1062" as="targetPoint" />
            <Array as="points">
              <mxPoint x="520" y="1080" />
              <mxPoint x="900" y="1080" />
            </Array>
          </mxGeometry>
        </mxCell>
        <mxCell id="CTZWOQ9P4lEHfxjSNw43-79" style="edgeStyle=orthogonalEdgeStyle;html=1;labelBackgroundColor=none;endArrow=open;endSize=8;fontFamily=Verdana;fontSize=12;align=left;exitX=0.5;exitY=0;exitDx=0;exitDy=0;entryX=1;entryY=0.5;entryDx=0;entryDy=0;" edge="1" parent="1" source="CTZWOQ9P4lEHfxjSNw43-37" target="CTZWOQ9P4lEHfxjSNw43-32">
          <mxGeometry relative="1" as="geometry">
            <mxPoint x="710" y="922" as="sourcePoint" />
            <mxPoint x="930" y="922" as="targetPoint" />
            <Array as="points">
              <mxPoint x="930" y="972" />
              <mxPoint x="860" y="972" />
              <mxPoint x="860" y="1012" />
            </Array>
          </mxGeometry>
        </mxCell>
        <mxCell id="CTZWOQ9P4lEHfxjSNw43-80" style="edgeStyle=orthogonalEdgeStyle;html=1;labelBackgroundColor=none;endArrow=open;endSize=8;fontFamily=Verdana;fontSize=12;align=left;entryX=0.5;entryY=0;entryDx=0;entryDy=0;exitX=0.5;exitY=1;exitDx=0;exitDy=0;" edge="1" parent="1" source="CTZWOQ9P4lEHfxjSNw43-34" target="CTZWOQ9P4lEHfxjSNw43-35">
          <mxGeometry relative="1" as="geometry">
            <mxPoint x="615" y="1200" as="sourcePoint" />
            <mxPoint x="795" y="1200" as="targetPoint" />
            <Array as="points">
              <mxPoint x="335" y="1180" />
              <mxPoint x="335" y="1180" />
            </Array>
          </mxGeometry>
        </mxCell>
        <mxCell id="CTZWOQ9P4lEHfxjSNw43-81" style="edgeStyle=orthogonalEdgeStyle;html=1;labelBackgroundColor=none;endArrow=open;endSize=8;fontFamily=Verdana;fontSize=12;align=left;entryX=0.25;entryY=0;entryDx=0;entryDy=0;exitX=0.5;exitY=0;exitDx=0;exitDy=0;" edge="1" parent="1" source="CTZWOQ9P4lEHfxjSNw43-36" target="CTZWOQ9P4lEHfxjSNw43-34">
          <mxGeometry relative="1" as="geometry">
            <mxPoint x="145" y="1094.79" as="sourcePoint" />
            <mxPoint x="325" y="1094.79" as="targetPoint" />
            <Array as="points">
              <mxPoint x="140" y="1090" />
              <mxPoint x="305" y="1090" />
            </Array>
          </mxGeometry>
        </mxCell>
        <mxCell id="CTZWOQ9P4lEHfxjSNw43-82" style="edgeStyle=orthogonalEdgeStyle;html=1;labelBackgroundColor=none;endArrow=open;endSize=8;fontFamily=Verdana;fontSize=12;align=left;entryX=0.5;entryY=1;entryDx=0;entryDy=0;exitX=0.25;exitY=1;exitDx=0;exitDy=0;" edge="1" parent="1" source="CTZWOQ9P4lEHfxjSNw43-34" target="CTZWOQ9P4lEHfxjSNw43-36">
          <mxGeometry relative="1" as="geometry">
            <mxPoint x="125" y="1190" as="sourcePoint" />
            <mxPoint x="305" y="1190" as="targetPoint" />
            <Array as="points">
              <mxPoint x="305" y="1170" />
              <mxPoint x="140" y="1170" />
            </Array>
          </mxGeometry>
        </mxCell>
        <mxCell id="CTZWOQ9P4lEHfxjSNw43-84" style="edgeStyle=orthogonalEdgeStyle;html=1;labelBackgroundColor=none;endArrow=open;endSize=8;fontFamily=Verdana;fontSize=12;align=left;exitX=1;exitY=0.5;exitDx=0;exitDy=0;entryX=0.75;entryY=0;entryDx=0;entryDy=0;" edge="1" parent="1" source="CTZWOQ9P4lEHfxjSNw43-38" target="CTZWOQ9P4lEHfxjSNw43-32">
          <mxGeometry relative="1" as="geometry">
            <mxPoint x="1010" y="1360" as="sourcePoint" />
            <mxPoint x="1190" y="1360" as="targetPoint" />
            <Array as="points">
              <mxPoint x="1040" y="1350" />
              <mxPoint x="1040" y="940" />
              <mxPoint x="520" y="940" />
            </Array>
          </mxGeometry>
        </mxCell>
        <mxCell id="CTZWOQ9P4lEHfxjSNw43-85" style="edgeStyle=orthogonalEdgeStyle;html=1;labelBackgroundColor=none;endArrow=open;endSize=8;fontFamily=Verdana;fontSize=12;align=left;entryX=0;entryY=0.5;entryDx=0;entryDy=0;exitX=0.5;exitY=1;exitDx=0;exitDy=0;" edge="1" parent="1" source="CTZWOQ9P4lEHfxjSNw43-35" target="CTZWOQ9P4lEHfxjSNw43-38">
          <mxGeometry relative="1" as="geometry">
            <mxPoint x="350" y="1300" as="sourcePoint" />
            <mxPoint x="530" y="1300" as="targetPoint" />
            <Array as="points">
              <mxPoint x="335" y="1350" />
            </Array>
          </mxGeometry>
        </mxCell>
        <mxCell id="CTZWOQ9P4lEHfxjSNw43-86" style="edgeStyle=orthogonalEdgeStyle;html=1;labelBackgroundColor=none;endArrow=open;endSize=8;fontFamily=Verdana;fontSize=12;align=left;exitX=1;exitY=0.25;exitDx=0;exitDy=0;entryX=0.75;entryY=1;entryDx=0;entryDy=0;" edge="1" parent="1" source="CTZWOQ9P4lEHfxjSNw43-38" target="CTZWOQ9P4lEHfxjSNw43-37">
          <mxGeometry relative="1" as="geometry">
            <mxPoint x="980" y="1285" as="sourcePoint" />
            <mxPoint x="1000" y="1090" as="targetPoint" />
            <Array as="points">
              <mxPoint x="960" y="1270" />
            </Array>
          </mxGeometry>
        </mxCell>
        <mxCell id="CTZWOQ9P4lEHfxjSNw43-87" value="Cancel(Abandon Booking Process)" style="text;html=1;align=left;verticalAlign=middle;resizable=0;points=[];autosize=1;strokeColor=none;fillColor=none;rotation=90;" vertex="1" parent="1">
          <mxGeometry x="870" y="1150" width="210" height="30" as="geometry" />
        </mxCell>
        <mxCell id="CTZWOQ9P4lEHfxjSNw43-91" value="Log/Complete(Finish Booking Process)" style="text;html=1;align=left;verticalAlign=middle;resizable=0;points=[];autosize=1;strokeColor=none;fillColor=none;" vertex="1" parent="1">
          <mxGeometry x="665" y="900" width="230" height="30" as="geometry" />
        </mxCell>
        <mxCell id="CTZWOQ9P4lEHfxjSNw43-92" value="Log/Cancel(Abandon Booking Process)" style="text;html=1;align=left;verticalAlign=middle;resizable=0;points=[];autosize=1;strokeColor=none;fillColor=none;" vertex="1" parent="1">
          <mxGeometry x="590" y="972" width="230" height="30" as="geometry" />
        </mxCell>
        <mxCell id="CTZWOQ9P4lEHfxjSNw43-93" value="Log/Cancel(Already Booked Room)" style="text;html=1;align=left;verticalAlign=middle;resizable=0;points=[];autosize=1;strokeColor=none;fillColor=none;" vertex="1" parent="1">
          <mxGeometry x="590" y="1020" width="210" height="30" as="geometry" />
        </mxCell>
        <mxCell id="CTZWOQ9P4lEHfxjSNw43-95" value="Booking(Change Room)" style="text;html=1;align=left;verticalAlign=middle;resizable=0;points=[];autosize=1;strokeColor=none;fillColor=none;" vertex="1" parent="1">
          <mxGeometry x="160" y="1170" width="150" height="30" as="geometry" />
        </mxCell>
        <mxCell id="CTZWOQ9P4lEHfxjSNw43-97" value="Booking(Chose Room)" style="text;html=1;align=left;verticalAlign=middle;resizable=0;points=[];autosize=1;strokeColor=none;fillColor=none;" vertex="1" parent="1">
          <mxGeometry x="160" y="1060" width="140" height="30" as="geometry" />
        </mxCell>
        <mxCell id="CTZWOQ9P4lEHfxjSNw43-98" value="Booking(Chose Room)" style="text;html=1;align=left;verticalAlign=middle;resizable=0;points=[];autosize=1;strokeColor=none;fillColor=none;" vertex="1" parent="1">
          <mxGeometry x="345" y="1165" width="140" height="30" as="geometry" />
        </mxCell>
        <mxCell id="CTZWOQ9P4lEHfxjSNw43-99" value="Booking(Start Booking)" style="text;html=1;align=left;verticalAlign=middle;resizable=0;points=[];autosize=1;strokeColor=none;fillColor=none;" vertex="1" parent="1">
          <mxGeometry x="325" y="1050" width="150" height="30" as="geometry" />
        </mxCell>
        <mxCell id="CTZWOQ9P4lEHfxjSNw43-101" value="Booking(Finish Booking)" style="text;html=1;align=left;verticalAlign=middle;resizable=0;points=[];autosize=1;strokeColor=none;fillColor=none;" vertex="1" parent="1">
          <mxGeometry x="390" y="1320" width="150" height="30" as="geometry" />
        </mxCell>
        <mxCell id="CTZWOQ9P4lEHfxjSNw43-117" value="" style="group" vertex="1" connectable="0" parent="1">
          <mxGeometry x="70" y="1210" width="265" height="450" as="geometry" />
        </mxCell>
        <mxCell id="CTZWOQ9P4lEHfxjSNw43-103" value="Events:" style="text;html=1;align=left;verticalAlign=middle;resizable=0;points=[];autosize=1;strokeColor=none;fillColor=none;" vertex="1" parent="CTZWOQ9P4lEHfxjSNw43-117">
          <mxGeometry width="60" height="30" as="geometry" />
        </mxCell>
        <mxCell id="CTZWOQ9P4lEHfxjSNw43-104" value="Booking:" style="text;html=1;align=left;verticalAlign=middle;resizable=0;points=[];autosize=1;strokeColor=none;fillColor=none;" vertex="1" parent="CTZWOQ9P4lEHfxjSNw43-117">
          <mxGeometry x="20" y="30" width="70" height="30" as="geometry" />
        </mxCell>
        <mxCell id="CTZWOQ9P4lEHfxjSNw43-105" value="Cancelling:" style="text;html=1;align=left;verticalAlign=middle;resizable=0;points=[];autosize=1;strokeColor=none;fillColor=none;" vertex="1" parent="CTZWOQ9P4lEHfxjSNw43-117">
          <mxGeometry x="20" y="140" width="80" height="30" as="geometry" />
        </mxCell>
        <mxCell id="CTZWOQ9P4lEHfxjSNw43-106" value="Actions:" style="text;html=1;align=left;verticalAlign=middle;resizable=0;points=[];autosize=1;strokeColor=none;fillColor=none;" vertex="1" parent="CTZWOQ9P4lEHfxjSNw43-117">
          <mxGeometry y="225" width="70" height="30" as="geometry" />
        </mxCell>
        <mxCell id="CTZWOQ9P4lEHfxjSNw43-107" value="Discount:" style="text;html=1;align=left;verticalAlign=middle;resizable=0;points=[];autosize=1;strokeColor=none;fillColor=none;" vertex="1" parent="CTZWOQ9P4lEHfxjSNw43-117">
          <mxGeometry x="20" y="255" width="70" height="30" as="geometry" />
        </mxCell>
        <mxCell id="CTZWOQ9P4lEHfxjSNw43-108" value="Log:" style="text;html=1;align=left;verticalAlign=middle;resizable=0;points=[];autosize=1;strokeColor=none;fillColor=none;" vertex="1" parent="CTZWOQ9P4lEHfxjSNw43-117">
          <mxGeometry x="20" y="365" width="50" height="30" as="geometry" />
        </mxCell>
        <mxCell id="CTZWOQ9P4lEHfxjSNw43-110" value="&lt;ul&gt;&lt;li&gt;&lt;span style=&quot;text-wrap: nowrap;&quot;&gt;Booking(Start Booking)&lt;/span&gt;&lt;br&gt;&lt;/li&gt;&lt;li&gt;&lt;span style=&quot;text-wrap: nowrap;&quot;&gt;Booking(Chose Room)&lt;/span&gt;&lt;br&gt;&lt;/li&gt;&lt;li&gt;&lt;span style=&quot;text-wrap: nowrap;&quot;&gt;Booking(Change Room)&lt;/span&gt;&lt;br&gt;&lt;/li&gt;&lt;li&gt;&lt;span style=&quot;text-wrap: nowrap;&quot;&gt;Booking(Finish Booking)&lt;br&gt;&lt;/span&gt;&lt;/li&gt;&lt;/ul&gt;" style="text;strokeColor=none;fillColor=none;html=1;verticalAlign=middle;overflow=hidden;spacingBottom=0;spacingTop=-5;spacing=2;spacingRight=0;fontSize=12;align=left;whiteSpace=wrap;spacingLeft=-13;" vertex="1" parent="CTZWOQ9P4lEHfxjSNw43-117">
          <mxGeometry x="15" y="60" width="170" height="80" as="geometry" />
        </mxCell>
        <mxCell id="CTZWOQ9P4lEHfxjSNw43-111" value="&lt;ul&gt;&lt;li&gt;&lt;span style=&quot;text-wrap: nowrap;&quot;&gt;Cancel(Already Booked Room)&lt;/span&gt;&lt;br&gt;&lt;/li&gt;&lt;li&gt;&lt;span style=&quot;text-wrap: nowrap;&quot;&gt;Cancel(Abandon Booking Process)&lt;/span&gt;&lt;br&gt;&lt;/li&gt;&lt;/ul&gt;" style="text;strokeColor=none;fillColor=none;html=1;verticalAlign=middle;overflow=hidden;spacingBottom=0;spacingTop=-5;spacing=2;spacingRight=0;fontSize=12;align=left;whiteSpace=wrap;spacingLeft=-13;" vertex="1" parent="CTZWOQ9P4lEHfxjSNw43-117">
          <mxGeometry x="15" y="170" width="230" height="55" as="geometry" />
        </mxCell>
        <mxCell id="CTZWOQ9P4lEHfxjSNw43-112" value="&lt;ul&gt;&lt;li&gt;&lt;span style=&quot;text-wrap: nowrap; background-color: initial;&quot;&gt;Log/Cancel(Already Booked Room)&lt;/span&gt;&lt;/li&gt;&lt;li&gt;&lt;span style=&quot;text-wrap: nowrap;&quot;&gt;Log/Cancel(Abandon Booking Process)&lt;/span&gt;&lt;br&gt;&lt;/li&gt;&lt;li&gt;&lt;span style=&quot;text-wrap: nowrap;&quot;&gt;Log/Complete(Finish Booking Process)&lt;br&gt;&lt;/span&gt;&lt;/li&gt;&lt;/ul&gt;" style="text;strokeColor=none;fillColor=none;html=1;verticalAlign=middle;overflow=hidden;spacingBottom=0;spacingTop=-5;spacing=2;spacingRight=0;fontSize=12;align=left;whiteSpace=wrap;spacingLeft=-13;" vertex="1" parent="CTZWOQ9P4lEHfxjSNw43-117">
          <mxGeometry x="15" y="395" width="250" height="55" as="geometry" />
        </mxCell>
        <mxCell id="CTZWOQ9P4lEHfxjSNw43-113" value="&lt;ul&gt;&lt;li&gt;&lt;span style=&quot;text-wrap: nowrap; background-color: initial;&quot;&gt;Discount/Veterans()&lt;/span&gt;&lt;/li&gt;&lt;li&gt;&lt;span style=&quot;text-wrap: nowrap;&quot;&gt;Discount/ElderlyPeople()&lt;/span&gt;&lt;br&gt;&lt;/li&gt;&lt;li&gt;&lt;span style=&quot;text-wrap: nowrap;&quot;&gt;Discount/DisabledPeople()&lt;/span&gt;&lt;br&gt;&lt;/li&gt;&lt;li&gt;&lt;span style=&quot;text-wrap: nowrap;&quot;&gt;Discount/SingleMothers()&lt;br&gt;&lt;/span&gt;&lt;/li&gt;&lt;/ul&gt;" style="text;strokeColor=none;fillColor=none;html=1;verticalAlign=middle;overflow=hidden;spacingBottom=0;spacingTop=-5;spacing=2;spacingRight=0;fontSize=12;align=left;whiteSpace=wrap;spacingLeft=-13;" vertex="1" parent="CTZWOQ9P4lEHfxjSNw43-117">
          <mxGeometry x="15" y="285" width="170" height="80" as="geometry" />
        </mxCell>
      </root>
    </mxGraphModel>
  </diagram>
</mxfile>
